<?xml version="1.0" encoding="UTF-8" standalone="no"?>
<!-- Created with Inkscape (http://www.inkscape.org/) -->

<svg
   xmlns:dc="http://purl.org/dc/elements/1.1/"
   xmlns:cc="http://creativecommons.org/ns#"
   xmlns:rdf="http://www.w3.org/1999/02/22-rdf-syntax-ns#"
   xmlns:svg="http://www.w3.org/2000/svg"
   xmlns="http://www.w3.org/2000/svg"
   xmlns:sodipodi="http://sodipodi.sourceforge.net/DTD/sodipodi-0.dtd"
   xmlns:inkscape="http://www.inkscape.org/namespaces/inkscape"
   width="250mm"
   height="250mm"
   viewBox="0 0 885.82677 885.82677"
   id="svg2"
   version="1.1"
   inkscape:version="0.91 r13725"
   sodipodi:docname="9_Icons.svg">
  <defs
     id="defs4" />
  <sodipodi:namedview
     id="base"
     pagecolor="#ffffff"
     bordercolor="#666666"
     borderopacity="1.0"
     inkscape:pageopacity="0.0"
     inkscape:pageshadow="2"
     inkscape:zoom="1.3302734"
     inkscape:cx="504.62194"
     inkscape:cy="504.91407"
     inkscape:document-units="mm"
     inkscape:current-layer="layer1"
     showgrid="false"
     showguides="true"
     inkscape:guide-bbox="true"
     guidetolerance="20"
     gridtolerance="10"
     inkscape:window-width="1920"
     inkscape:window-height="1138"
     inkscape:window-x="-8"
     inkscape:window-y="-8"
     inkscape:window-maximized="1">
    <sodipodi:guide
       position="261.62952,1004.0917"
       orientation="1,0"
       id="guide3785" />
    <sodipodi:guide
       position="-162.14287,477.85717"
       orientation="0,1"
       id="guide3789" />
    <sodipodi:guide
       position="408.10165,1019.244"
       orientation="1,0"
       id="guide3816" />
    <sodipodi:guide
       position="552.55347,981.86833"
       orientation="1,0"
       id="guide3820" />
    <sodipodi:guide
       position="-125.71429,622.85718"
       orientation="0,1"
       id="guide3811" />
    <sodipodi:guide
       position="-170.7143,333.57145"
       orientation="0,1"
       id="guide3803" />
    <sodipodi:guide
       position="194.28572,835.71433"
       orientation="1,0"
       id="guide3807" />
    <sodipodi:guide
       position="-240.00001,690.00004"
       orientation="0,1"
       id="guide3809" />
    <sodipodi:guide
       position="-155.71429,265.7143"
       orientation="0,1"
       id="guide3812" />
    <sodipodi:guide
       position="620.00003,750.00004"
       orientation="1,0"
       id="guide3814" />
    <sodipodi:guide
       position="485.71431,1030.0001"
       orientation="1,0"
       id="guide3817" />
    <sodipodi:guide
       position="332.14288,791.42862"
       orientation="1,0"
       id="guide3819" />
  </sodipodi:namedview>
  <metadata
     id="metadata7">
    <rdf:RDF>
      <cc:Work
         rdf:about="">
        <dc:format>image/svg+xml</dc:format>
        <dc:type
           rdf:resource="http://purl.org/dc/dcmitype/StillImage" />
        <dc:title />
      </cc:Work>
    </rdf:RDF>
  </metadata>
  <g
     inkscape:label="Ebene 1"
     inkscape:groupmode="layer"
     id="layer1"
     transform="translate(0,-166.53543)">
    <path
       style="fill:none;stroke:#000000;stroke-width:0.03543307;stroke-miterlimit:4;stroke-dasharray:none;stroke-opacity:1"
       d="m 356.78205,481.39976 0,-3.86098 4.70824,0 4.70825,0 0,-2.63249 0,-2.6325 6.89421,0 6.89422,0 0,2.6325 0,2.63249 10.25724,0 10.25726,0 0,-2.63249 0,-2.6325 38.33856,0 38.33856,0 0,2.61099 0,2.61098 -1.42929,0.17726 c -0.7861,0.0975 -5.43972,0.34948 -10.34133,0.55999 -20.19662,0.86734 -32.30043,2.59329 -40.40549,5.76164 l -3.23883,1.26609 -32.4908,0 -32.4908,0 0,-3.86098 z m 8.57573,-12.62139 c -3.32763,-1.66237 -6.62577,-6.26963 -8.03377,-11.22249 -0.64326,-2.2628 -0.71226,-10.69903 -0.20572,-25.14864 0.46948,-13.3922 1.83145,-19.86115 7.5711,-35.96101 1.82598,-5.12193 2.51822,-6.56877 3.68893,-7.71018 l 0.90002,-0.8775 11.04381,-0.1755 11.04382,-0.1755 -0.89204,-1.9305 c -1.20412,-2.60585 -4.74225,-6.28999 -7.37061,-7.67475 -1.92559,-1.01451 -2.35048,-1.10021 -5.45447,-1.10021 -3.36249,0 -3.36647,-7.9e-4 -3.59029,-0.93184 -0.51603,-2.14585 -1.42286,-2.05166 19.7535,-2.05166 l 19.30078,0 0,1.404 0,1.40399 -3.5312,0.17551 c -3.11723,0.15491 -3.74594,0.29894 -5.36332,1.22848 -2.63288,1.51321 -5.45923,4.38263 -6.6892,6.79113 -0.58481,1.14516 -1.06329,2.25745 -1.06329,2.47174 0,0.27177 1.92705,0.38961 6.37165,0.38961 l 6.37167,0 2.62234,1.41631 c 2.90253,1.56762 4.87812,3.36179 5.83786,5.30174 0.34763,0.70265 1.25366,2.91395 2.01345,4.91398 2.81921,7.42127 7.47664,15.77991 12.20344,21.90138 3.04395,3.94205 9.60027,10.43768 13.27233,13.14944 8.54808,6.31265 17.99551,10.75942 28.3565,13.347 l 3.23069,0.80684 0.21488,3.8918 c 0.11819,2.14049 0.21558,6.50231 0.21641,9.69292 0.002,4.68429 -0.0992,5.95133 -0.52199,6.58124 l -0.52352,0.7801 -54.71427,-0.009 c -53.20003,-0.008 -54.75151,-0.0263 -56.05949,-0.67975 z m 109.13038,-13.69685 0,-4.9073 -0.92483,-0.2042 c -2.72696,-0.60214 -2.4382,-1.11828 -2.4382,4.35817 l 0,4.88269 1.59744,0.34748 c 0.8786,0.19112 1.63528,0.36615 1.68152,0.38897 0.0463,0.0228 0.084,-2.16678 0.084,-4.86581 z m -6.05345,-1.18924 0,-5.04357 -1.09298,-0.19879 c -0.60116,-0.10933 -1.58484,-0.30769 -2.18598,-0.4408 l -1.09299,-0.242 0,5.11744 0,5.11747 1.26115,0.22013 c 0.69361,0.12109 1.41246,0.27374 1.59742,0.33921 1.4824,0.52473 1.51338,0.42506 1.51338,-4.86909 z m -7.13769,-1.69269 -0.0929,-5.33223 -1.89103,-0.58551 c -1.04006,-0.32203 -2.29235,-0.69063 -2.78287,-0.81912 l -0.89184,-0.23362 0.0925,5.70172 0.0925,5.70174 1.34522,0.42264 c 0.73986,0.23248 1.99233,0.4348 2.78326,0.44964 l 1.43805,0.0271 -0.0929,-5.33224 z m -8.66857,-2.75321 0,-5.97945 -1.42928,-0.65466 c -0.78611,-0.36008 -2.29947,-1.06324 -3.36303,-1.5626 l -1.93374,-0.90792 0,6.48003 0,6.48004 1.09298,0.59227 c 1.25749,0.68142 3.77004,1.45447 4.8764,1.50036 0.75626,0.0315 0.75667,0.0281 0.75667,-5.94807 z M 441.2853,437.00129 c -0.51255,-0.38568 -2.10477,-1.68599 -3.53826,-2.88958 l -2.60635,-2.18833 0,8.44007 0,8.44006 3.44711,1.68319 3.44711,1.6832 0.0911,-7.23369 0.0911,-7.23369 -0.9319,-0.70123 z m -70.53808,9.99505 c 3.89007,-2.50928 2.27112,-9.56716 -2.19456,-9.56716 -2.45559,0 -4.36837,2.16924 -4.37068,4.95666 -0.003,4.14893 3.484,6.59801 6.56524,4.6105 z m 37.37396,-0.39257 c 2.47677,-2.41461 2.34325,-6.48226 -0.27859,-8.48754 -1.11815,-0.85521 -3.30721,-0.90087 -4.48765,-0.0936 -2.03074,1.38876 -2.83206,4.89184 -1.66009,7.25725 1.21074,2.44362 4.56831,3.13533 6.42633,1.32394 z m 20.71575,-21.2144 c -1.06833,-1.14395 -2.89515,-3.18558 -4.05959,-4.53692 l -2.11719,-2.457 0.19009,10.35447 c 0.10454,5.69497 0.28134,11.08052 0.39288,11.96787 l 0.2028,1.6134 3.57734,1.96741 3.57734,1.96739 0.0893,-9.39834 0.0893,-9.39835 -1.94241,-2.07993 z m -14.89517,-10.65632 c 0.63664,-1.24157 0.36156,-3.53065 -1.00723,-8.38189 -1.91019,-6.77003 -3.04604,-9.83359 -4.07634,-10.99449 l -0.89161,-1.00463 -18.97573,0 -18.97572,0 -0.71407,0.79327 c -0.87437,0.97141 -1.87432,3.30398 -3.87307,9.03469 -0.84164,2.41312 -1.7853,5.01478 -2.09701,5.78147 -0.65445,1.60973 -0.5273,4.6407 0.21529,5.13152 0.25663,0.16964 11.61269,0.31064 25.25683,0.31359 24.16824,0.006 24.79926,-0.0117 25.13866,-0.67353 z m -19.34252,-30.59928 c 0.45034,-1.85111 1.38179,-3.3572 3.50321,-5.66444 l 1.53297,-1.66724 -5.82481,0 -5.82481,0 1.93435,2.18062 c 1.94713,2.19503 3.1616,4.39278 3.17527,5.7461 0.004,0.40219 0.11142,0.83984 0.23859,0.97256 0.4714,0.49199 0.8905,-0.0271 1.26523,-1.5676 z"
       id="path3885"
       inkscape:connector-curvature="0" />
    <path
       style="fill:none;stroke:#000000;stroke-width:0.03543307;stroke-miterlimit:4;stroke-dasharray:none;stroke-opacity:1"
       d="m 247.79362,484.69046 c -3.09719,-0.60151 -6.6892,-2.1095 -8.60373,-3.61206 -4.81364,-3.77782 -7.54173,-9.07485 -7.63638,-14.82732 -0.0278,-1.6917 0.12889,-2.38801 0.79213,-3.5193 1.18931,-2.02857 3.91349,-3.00772 6.14626,-2.20911 2.00941,0.71871 3.24733,2.30969 3.50976,4.51078 0.40142,3.36694 1.06813,4.98348 2.71019,6.57126 2.66993,2.58168 6.6204,3.13142 9.7464,1.35627 1.81848,-1.03265 3.17201,-2.72034 3.89851,-4.861 0.3582,-1.05542 0.36513,-1.53783 0.36513,-25.43195 0,-23.11062 -0.0163,-24.3511 -0.31873,-24.25792 -0.17532,0.0539 -1.10937,0.26999 -2.0757,0.47996 -3.03869,0.66025 -5.65674,1.77257 -8.21614,3.49076 -1.47858,0.99262 -3.52042,2.95447 -4.27001,4.10274 -0.25707,0.3938 -0.52889,0.71598 -0.60406,0.71598 -0.0752,0 -0.41261,-0.37676 -0.74988,-0.83725 -1.58763,-2.16768 -4.31729,-4.36809 -6.98803,-5.63312 -3.73071,-1.76711 -7.48579,-2.59268 -11.81226,-2.597 -3.0114,-0.003 -4.33626,0.14121 -6.92952,0.75419 -3.38673,0.80053 -6.82376,2.43911 -9.15794,4.36599 -0.78344,0.64672 -1.47332,1.17626 -1.53304,1.17673 -0.14976,0.002 0.66888,-3.5744 1.33144,-5.81533 1.52259,-5.14977 3.45381,-9.51382 6.20824,-14.029 0.8066,-1.32223 1.62041,-2.61176 1.80846,-2.86564 2.61188,-3.52605 4.04025,-5.23784 6.24216,-7.48064 1.32973,-1.35444 5.79745,-5.27101 6.89095,-6.04085 4.15601,-2.92594 8.72974,-5.52487 11.96029,-6.79618 4.57314,-1.79965 6.87609,-2.50582 10.8372,-3.32301 2.19217,-0.45225 5.56306,-0.91655 6.65432,-0.91655 0.50461,0 0.90393,-0.51309 0.90838,-1.16718 0.0102,-1.48796 1.39482,-3.30794 3.11067,-4.08854 2.09242,-0.95194 4.48106,-0.40714 6.03544,1.37653 0.82172,0.94295 0.98714,1.30663 1.29679,2.85119 l 0.2196,1.09537 2.45313,0.41178 c 4.1029,0.68872 6.6037,1.32394 10.37613,2.63562 9.32638,3.24278 18.42129,9.61431 24.91284,17.45288 1.38916,1.67744 4.59346,6.04957 4.59346,6.2676 0,0.0512 0.40246,0.75089 0.89437,1.5549 2.1417,3.50059 4.22358,8.32866 5.63227,13.06172 0.65218,2.1913 1.47682,5.81653 1.32281,5.81533 -0.0598,-5.6e-4 -0.74958,-0.53001 -1.53303,-1.17673 -2.33419,-1.92688 -5.77123,-3.56546 -9.15794,-4.36599 -2.59111,-0.61247 -3.91775,-0.7572 -6.90284,-0.75306 -4.33592,0.007 -8.12546,0.83693 -11.83894,2.59587 -2.67075,1.26503 -5.4004,3.46544 -6.98805,5.63312 -0.33727,0.46049 -0.67472,0.83725 -0.74988,0.83725 -0.0752,0 -0.36313,-0.34693 -0.63995,-0.77098 -1.17398,-1.79836 -4.02964,-4.17692 -6.56193,-5.46561 -1.86272,-0.94795 -4.90539,-2.03783 -5.77263,-2.06773 -0.072,-0.002 -0.15522,11.02546 -0.18495,24.50656 -0.0499,22.61151 -0.079,24.62862 -0.37584,26.02813 -1.54045,7.26234 -6.76227,12.82424 -13.87936,14.7832 -1.30666,0.35968 -2.17503,0.46282 -4.28022,0.50848 -1.45256,0.0316 -2.8459,0.0175 -3.09635,-0.0311 z"
       id="path3879"
       inkscape:connector-curvature="0" />
    <path
       style="fill:none;stroke-width:0.03543307;stroke-miterlimit:4;stroke-dasharray:none;stroke:#000000;stroke-opacity:1"
       d="m 424.29505,620.50308 -6.98568,-11.59894 6.98568,-11.51514 6.98568,-11.51513 0.19713,6.30704 0.19715,6.30707 15.77232,-0.20816 c 8.67477,-0.11447 15.69472,-0.0395 15.59989,0.16664 -1.39488,3.0316 -11.34173,18.56495 -12.62686,19.71853 -1.59819,1.4346 -2.4075,1.57593 -10.24092,1.78853 l -8.5056,0.23083 -0.19656,5.95882 -0.19655,5.95883 z m -50.34376,-1.2917 c -0.93305,-0.45099 -2.42774,-1.84903 -3.32154,-3.10675 -2.22173,-3.12634 -1.74656,-5.73415 2.25123,-12.35497 l 3.2304,-5.34993 15.05009,0 15.05008,0 0,10.82549 0,10.82551 -15.2819,-0.01 c -10.84373,-0.007 -15.77459,-0.24784 -16.97836,-0.82969 z m -15.78022,-20.65529 c -4.2865,-7.14566 -5.79642,-10.26908 -5.78454,-11.966 0.0111,-1.59177 1.22828,-4.27634 3.96707,-8.7498 2.17304,-3.54941 3.84425,-6.55543 3.7138,-6.68006 -0.13046,-0.12461 -2.70515,-1.57317 -5.72156,-3.21897 l -5.48434,-2.99242 14.19398,-0.005 14.194,-0.005 6.89213,11.29518 c 3.79067,6.21236 6.7954,11.38759 6.67719,11.50051 -0.11821,0.11292 -2.3747,-0.98416 -5.01441,-2.43796 -2.63971,-1.4538 -5.08791,-2.64328 -5.44043,-2.64328 -0.63022,0 -14.807,22.97997 -15.24069,24.70451 -0.12213,0.48567 -0.43121,0.8796 -0.68682,0.87539 -0.25562,-0.004 -3.07504,-4.35903 -6.26538,-9.67736 z m 84.40644,-14.75438 c -3.09863,-5.14212 -6.49048,-10.70772 -7.53748,-12.36798 l -1.90362,-3.0187 9.93196,-5.41543 c 5.46258,-2.9785 10.01241,-5.3106 10.11072,-5.18245 0.0983,0.12814 3.4791,5.72595 7.51282,12.43956 7.88468,13.123 8.70753,15.68936 6.20183,19.34241 -1.93721,2.82425 -4.36105,3.55188 -11.83168,3.55188 l -6.85069,0 z m -59.5998,-28.70456 c -5.03463,-2.82234 -9.28726,-5.25893 -9.45028,-5.41466 -0.163,-0.1557 3.0807,-5.86534 7.20822,-12.68806 5.01559,-8.29065 8.14991,-12.78459 9.45026,-13.54964 2.66236,-1.56635 7.15197,-1.48709 9.35075,0.16506 2.67185,2.00762 8.3149,11.71551 7.60064,13.07558 -2.158,4.10927 -14.2236,23.6498 -14.57349,23.60212 -0.23772,-0.0324 -4.55147,-2.36808 -9.5861,-5.1904 z m 27.3548,-2.22172 c 0,-0.1397 2.3036,-1.51306 5.11913,-3.05188 l 5.11912,-2.79788 -1.63474,-2.6889 c -0.89911,-1.47891 -4.40881,-7.26514 -7.79935,-12.85832 l -6.16459,-10.16941 12.10991,-0.17978 c 10.72178,-0.15917 12.29755,-0.0459 13.74685,0.98769 0.90033,0.64211 3.33101,3.97065 5.40153,7.39677 2.07052,3.42612 3.87201,6.33503 4.00327,6.46422 0.13129,0.12919 2.03399,-0.79325 4.22823,-2.04988 2.19424,-1.25663 4.73266,-2.65188 5.64092,-3.10057 l 1.65137,-0.81579 -1.39323,2.20958 c -0.76628,1.21526 -3.93626,6.41676 -7.0444,11.55888 l -5.65115,9.34929 -13.66644,0 c -7.51654,0 -13.66643,-0.11431 -13.66643,-0.25402 z"
       id="path3883"
       inkscape:connector-curvature="0"
       sodipodi:nodetypes="ccccccscsscccccsscccccccccsscscccscssscccsscssssscssssssscssscsscssscsscsscss" />
    <path
       style="fill:none;stroke:#000000;stroke-width:0.03543307;stroke-miterlimit:4;stroke-dasharray:none;stroke-opacity:1"
       d="m 540.64889,489.10311 c -5.49255,-1.30839 -9.1033,-3.09732 -13.32025,-6.59955 -5.99478,-4.97875 -8.90409,-10.76376 -8.90409,-17.70529 0,-8.40281 5.48136,-16.82784 13.6932,-21.04686 l 3.0978,-1.59154 0.004,-27.37014 c 0.003,-17.50597 0.19874,-27.95697 0.54624,-28.99848 0.81294,-2.43652 3.59748,-5.17858 6.53508,-6.43539 2.08799,-0.8933 3.34815,-1.11335 6.2976,-1.09967 4.37375,0.0202 6.97794,0.98151 9.86462,3.6411 3.54973,3.27053 3.53893,3.16889 3.53893,33.2999 l 0,26.96316 2.76941,1.53056 c 12.95339,7.1589 17.42952,20.95518 10.53593,32.47371 -3.97207,6.63696 -11.8939,11.75585 -20.55275,13.28067 -4.00029,0.70444 -10.35841,0.5502 -14.10465,-0.34218 z m 14.87151,-5.64772 c 7.74084,-2.01136 13.55747,-7.1626 15.65433,-13.86357 2.77654,-8.873 -2.44264,-18.23015 -12.37046,-22.17831 l -3.55419,-1.41344 -0.1697,-29.60988 -0.16968,-29.60985 -1.62466,-1.35217 c -2.98668,-2.48575 -7.92601,-2.18551 -10.33737,0.62838 l -1.16807,1.36306 -0.14868,29.29022 -0.14869,29.29024 -3.24971,1.26367 c -4.38913,1.70677 -8.85806,5.47668 -11.04225,9.31508 -1.61341,2.83532 -1.692,3.2171 -1.692,8.21945 0,4.98993 0.0817,5.38948 1.67276,8.18521 2.84507,4.99907 7.77143,8.66759 14.07649,10.48237 3.57505,1.02901 10.29035,1.02408 14.27188,-0.0105 z m -10.98463,-3.58755 c -5.72003,-1.19394 -11.56977,-5.45191 -13.33877,-9.70923 -1.49808,-3.60527 -1.2724,-8.20691 0.56807,-11.58313 2.19307,-4.02304 7.23764,-7.63746 11.98504,-8.58721 l 1.44432,-0.28894 0,-17.71783 0,-17.71781 3.28252,0.13016 3.28254,0.13015 0.1372,17.56249 0.13723,17.5625 2.4888,0.6909 c 5.25495,1.45883 10.26335,5.94374 11.75224,10.52386 0.8595,2.64404 0.30265,7.93388 -1.09141,10.36803 -2.89661,5.05768 -8.7329,8.43736 -15.26231,8.83807 -1.87759,0.11525 -4.30105,0.0243 -5.38547,-0.20201 z m -32.95441,-41.51821 0,-1.31151 9.97888,0 9.97888,0 0,1.31151 0,1.31149 -9.97888,0 -9.97888,0 z m 69.31047,-6.03673 c -5.30802,-1.19129 -10.02977,-4.53841 -12.34197,-8.74887 -3.36051,-6.11937 -2.58105,-14.77118 1.8093,-20.08268 5.07531,-6.14021 13.6989,-8.98598 23.67264,-7.81192 6.34944,0.74742 6.32969,0.73142 6.32969,5.1248 0,2.0353 -0.12563,3.70055 -0.27918,3.70055 -0.15354,0 -1.74884,-0.41425 -3.54512,-0.92055 -7.12801,-2.00908 -14.07265,-0.34573 -17.43257,4.17541 -1.393,1.8744 -1.61207,2.61327 -1.77202,5.97636 -0.15989,3.36172 -0.0189,4.13481 1.13597,6.23479 2.9884,5.43335 11.26768,7.32665 19.50744,4.46095 1.09368,-0.38037 2.07786,-0.69158 2.18701,-0.69158 0.10916,0 0.19847,1.64829 0.19847,3.66288 0,3.58812 -0.0295,3.67267 -1.44433,4.14265 -4.26994,1.41838 -13.41207,1.81259 -18.02533,0.77721 z m -62.48281,-2.48805 0,-1.53008 6.56505,0 6.56505,0 0,1.53008 0,1.53009 -6.56505,0 -6.56505,0 z m -6.82766,-8.52476 0,-1.3115 9.97888,0 9.97888,0 0,1.3115 0,1.31149 -9.97888,0 -9.97888,0 z m 6.82766,-8.30619 0,-1.3115 6.56505,0 6.56505,0 0,1.3115 0,1.31151 -6.56505,0 -6.56505,0 z m 84.97848,-18.07776 c -2.58197,-1.05928 -3.96718,-2.97058 -4.20489,-5.80188 -0.25524,-3.03985 1.14837,-5.01621 4.61974,-6.50494 5.96833,-2.55954 13.18848,1.39551 12.45368,6.82189 -0.29888,2.20727 -1.53591,3.80448 -4.04932,5.22834 -2.10929,1.19496 -6.23911,1.3151 -8.81921,0.25659 z m 6.71307,-3.64463 c 1.30162,-1.08344 1.40101,-3.76177 0.18119,-4.88372 -1.32998,-1.22327 -4.07557,-1.04394 -5.39511,0.35242 -0.59869,0.63353 -1.08853,1.59062 -1.08853,2.12688 0,2.70089 4.07744,4.25646 6.30245,2.40442 z m -98.51921,13.4162 0,-1.31149 9.97888,0 9.97888,0 0,1.31149 0,1.31151 -9.97888,0 -9.97888,0 z m 6.82766,-8.52475 0,-1.5301 6.56505,0 6.56505,0 0,1.5301 0,1.53008 -6.56505,0 -6.56505,0 z m -6.82766,-8.30619 0,-1.53008 9.97888,0 9.97888,0 0,1.53008 0,1.53009 -9.97888,0 -9.97888,0 z"
       id="path3881"
       inkscape:connector-curvature="0"
       sodipodi:nodetypes="csssccssssscssscccsscccsscccssscscccssscccccccssssccccccccccssssssssscssscscccccccccccccccccccccccccccsssssssssssccccccccccccccccccccccccccc" />
    <path
       style="fill:none;stroke:#000000;stroke-width:0.03543307;stroke-miterlimit:4;stroke-dasharray:none;stroke-opacity:1"
       d="m 540.31729,772.74777 c -5.61683,-4.01863 -4.61737,-9.62497 2.54256,-14.26083 5.23612,-3.39024 7.7081,-3.65609 14.22931,-1.53028 13.66744,4.45537 8.85605,18.50588 -6.33706,18.50588 -3.65205,0 -8.34784,-1.22166 -10.43481,-2.71477 z m 0.50189,-27.84338 c -4.30447,-8.02548 2.33133,-18.45038 19.43785,-30.53727 23.50022,-16.60437 23.72335,-26.46672 0.69262,-30.60227 -12.711,-2.28251 -25.76931,2.49513 -31.8807,11.66424 -4.06744,6.10218 -6.93404,7.77836 -12.35963,7.22678 -5.99832,-0.60984 -7.00536,-2.03386 -6.67423,-9.43725 1.19574,-26.74379 67.29837,-34.98173 84.93232,-10.58458 10.20714,14.12165 4.31785,28.13996 -17.41236,41.44757 -7.87987,4.82565 -14.1142,11.06818 -16.04205,16.0632 -2.54229,6.5875 -4.67453,8.17008 -11.0088,8.17008 -4.32064,0 -8.67898,-1.53472 -9.68502,-3.4105 z"
       id="path3904"
       inkscape:connector-curvature="0"
       sodipodi:nodetypes="sssssssscscsscss" />
    <path
       style="fill:none;stroke:#000000;stroke-width:0.03543307;stroke-miterlimit:4;stroke-dasharray:none;stroke-opacity:1"
       d="m 224.01428,630.40616 c -5.6608,-0.73674 -11.21352,-3.51315 -15.43937,-7.71976 -2.50856,-2.49716 -4.1751,-4.77547 -5.61065,-7.67023 -5.36664,-10.82188 -3.63519,-23.93088 4.35888,-33.00156 3.25335,-3.69148 8.3311,-6.85738 13.18455,-8.22028 2.26546,-0.63617 2.93164,-0.7043 7.01908,-0.71785 3.85804,-0.0128 4.83108,0.0686 6.6781,0.55908 15.12156,4.01491 24.1994,19.89562 20.28159,35.48051 -3.50973,13.9617 -16.58555,23.09741 -30.47218,21.29009 z m 8.9067,-6.00013 c 7.67922,-1.868 13.99865,-8.19118 16.33888,-16.34863 0.67213,-2.34268 0.91982,-7.77177 0.47417,-10.39318 -1.23774,-7.28156 -5.71706,-13.47 -12.14083,-16.77327 -3.35059,-1.72295 -5.25888,-2.23398 -8.95584,-2.39831 -6.00819,-0.26708 -10.96031,1.46798 -15.55096,5.44851 -3.34938,2.90425 -6.20654,7.75226 -7.29851,12.38403 -0.6962,2.95313 -0.75196,7.70447 -0.12238,10.42062 2.26789,9.78342 9.71642,16.81201 19.28953,18.20195 2.12197,0.3081 5.3846,0.0862 7.96594,-0.54172 z m 63.85204,6.00013 c -5.66075,-0.73674 -11.21352,-3.51315 -15.43938,-7.71976 -2.64708,-2.63507 -4.2251,-4.84559 -5.75542,-8.06233 -6.98714,-14.68685 -1.08831,-32.15066 13.21919,-39.13651 3.40473,-1.6624 6.3394,-2.34165 10.73542,-2.48476 3.18458,-0.10367 4.1656,-0.0361 6.37833,0.43872 8.44047,1.81153 15.37738,7.33756 19.2098,15.30272 0.76092,1.58154 1.65531,3.88087 1.98743,5.10962 4.61741,17.08117 -6.42671,34.40142 -23.31036,36.55725 -2.56158,0.32705 -4.48445,0.3257 -7.02501,-0.005 z m 8.90669,-5.99876 c 6.28175,-1.52415 11.965,-6.28077 14.81264,-12.3975 1.86954,-4.01585 2.11896,-5.24949 2.11382,-10.45649 -0.006,-4.36354 -0.0194,-4.49068 -0.85425,-7.02218 -2.08576,-6.32722 -6.12336,-11.06564 -11.80705,-13.85649 -3.25886,-1.60018 -4.86629,-2.00973 -8.54877,-2.17809 -3.64923,-0.16686 -6.19721,0.25279 -9.26457,1.52588 -9.34756,3.87967 -15.23104,14.05091 -14.03769,24.26804 0.65458,5.60457 2.97824,10.48374 6.79591,14.26964 5.64439,5.59751 13.13552,7.70441 20.78996,5.84719 z m -44.11478,-15.56145 c -1.48958,-0.77344 -2.37771,-1.85202 -2.77601,-3.37135 -0.18,-0.68636 -0.2769,-5.3568 -0.28207,-13.59342 l -0.009,-12.54777 -4.48363,-2.43135 c -4.76777,-2.58544 -11.59898,-6.66523 -14.35911,-8.57571 -3.63266,-2.51441 -5.41722,-5.40241 -5.67009,-9.17607 -0.15726,-2.34713 0.29012,-3.90918 1.89021,-6.60014 1.39808,-2.35115 2.91341,-4.21074 8.31706,-10.20654 7.47123,-8.28989 10.7594,-11.40002 13.44044,-12.71272 1.59977,-0.78324 3.80676,-0.82461 5.33893,-0.10003 1.74326,0.82439 3.98066,2.78539 5.16198,4.52426 1.41233,2.07895 4.22407,7.13214 6.61721,11.89222 l 1.87747,3.73443 3.79952,-0.17495 c 4.70714,-0.21674 7.74114,0.14199 9.69544,1.14635 1.19174,0.61245 1.42544,0.85901 1.71372,1.80811 0.46498,1.5308 0.0205,3.70859 -1.00489,4.92561 -1.22925,1.45875 -1.9124,1.55328 -10.61681,1.46938 -6.8629,-0.0661 -7.89608,-0.13058 -8.80369,-0.5489 -1.09085,-0.50275 -0.92387,-0.25778 -5.22238,-7.66295 -0.98033,-1.68883 -1.83968,-3.07104 -1.9097,-3.07158 -0.15408,-9.4e-4 -11.13168,12.00213 -11.237,12.2869 -0.0405,0.11027 3.40272,2.44324 7.65223,5.18437 4.2495,2.74113 7.91665,5.13661 8.14928,5.3233 0.38799,0.3114 0.42789,1.77381 0.48345,17.7233 0.0578,16.58449 0.0383,17.44975 -0.42293,18.81552 -0.69242,2.05037 -1.58616,2.62029 -4.10925,2.62029 -1.56623,0 -2.16267,-0.12561 -3.23149,-0.68056 z m 12.40811,-75.68077 c -5.8871,-1.44029 -9.07902,-7.9001 -6.90468,-13.9738 0.76984,-2.15054 3.25961,-4.75218 5.36814,-5.60934 2.12375,-0.86336 5.40301,-0.86336 7.52677,0 2.08477,0.84751 4.58107,3.44556 5.40624,5.62659 0.82826,2.18927 0.83803,5.63068 0.0221,7.77615 -0.66512,1.74869 -2.56374,4.03608 -4.15848,5.00983 -2.08931,1.27574 -4.94691,1.73649 -7.2601,1.17057 z"
       id="path3917"
       inkscape:connector-curvature="0"
       sodipodi:nodetypes="ssssssssssccsssscsscsssssccsccssccssssssccccssccssssscssscscsccscsssccscssscss" />
    <path
       style="fill:none;stroke:#000000;stroke-width:0.03543307;stroke-miterlimit:4;stroke-dasharray:none;stroke-opacity:1"
       d="m 453.9779,659.99496 0,5.47765 0,5.47762 -5.55955,0 -5.55835,0 0,5.67352 0,5.67355 5.55835,0 5.55955,0 0,5.47763 0,5.47762 5.77553,0 5.77681,0 -0.062,-5.38024 -0.062,-5.37908 5.6013,-0.10898 5.60253,-0.10898 0,-5.66194 0,-5.6631 -5.55949,0 -5.55836,0 0,-5.47762 0,-5.47765 -5.75768,0 -5.75646,0 z m -47.07225,15.36518 c -6.38926,0.10462 -12.77064,3.61387 -16.23345,9.28471 -2.01803,3.30484 -2.7759,5.97576 -2.77619,9.78206 -6e-4,8.77134 5.76398,16.15404 14.50872,18.57987 2.71113,0.75207 8.04831,0.52318 11.07612,-0.47532 9.31602,-3.07222 14.96242,-13.24036 12.50839,-22.52491 -1.92141,-7.26913 -7.14713,-12.3049 -14.69495,-14.15951 -1.43944,-0.35369 -2.91425,-0.51104 -4.38864,-0.4869 z m 23.3744,19.12589 c -0.89605,0.0504 -1.71394,1.43366 -1.71394,3.47669 0,5.74253 -3.04314,14.22804 -6.84501,19.08416 -2.40881,3.07677 -4.89946,5.0946 -8.24264,6.67981 -2.71937,1.28943 -3.27126,1.41079 -6.35326,1.39345 -2.93106,-0.0165 -3.73012,-0.18154 -6.07868,-1.25666 -3.19444,-1.46235 -7.52314,-5.36334 -9.85394,-8.88129 -2.68412,-4.05123 -4.77534,-10.29809 -5.31008,-15.86019 -0.34603,-3.59918 -0.50648,-4.18673 -1.21623,-4.45512 -0.34527,-0.13056 -0.97193,-0.0563 -1.39286,0.16577 -0.60892,0.32113 -0.76506,0.83094 -0.76506,2.4913 0,3.14202 1.03833,8.38525 2.39066,12.06817 3.5381,9.63553 10.7557,16.90063 18.5537,18.67724 l 2.0839,0.47531 0,16.47229 c 0,9.23633 -0.14966,16.30973 -0.34137,16.1013 -0.27713,-0.3013 -9.28113,-20.38943 -18.36149,-40.96564 -1.90123,-4.30825 -1.83218,-4.27038 -5.89373,-3.23326 -9.69417,2.47541 -17.31367,9.81787 -20.7116,19.95942 -0.89456,2.66988 -0.92092,3.18506 -1.05748,20.444 l -0.13965,17.70459 37.34841,0 37.34845,0 0,-13.88939 0,-13.89056 1.98491,0 1.98484,0 0,13.89056 0,13.88939 8.7356,0 8.73557,0 0,-16.84441 c 0,-18.92126 -0.1212,-20.04738 -2.76069,-25.60745 -2.72306,-5.73603 -6.61604,-9.89271 -12.07038,-12.89009 -2.7636,-1.51871 -8.1313,-3.34802 -9.82525,-3.34802 -1.34875,0 -0.28457,-2.15926 -12.86043,26.10711 -5.0001,11.23855 -9.10111,20.39371 -9.11394,20.34545 -0.0126,-0.0483 0.0244,-7.77889 0.0835,-17.17945 l 0.10737,-17.09134 2.21759,-0.45445 c 2.66488,-0.54515 6.58975,-2.49869 9.14378,-4.5525 2.40403,-1.93323 6.12474,-6.87653 7.8607,-10.44286 2.87434,-5.90505 4.82025,-15.69875 3.52932,-17.76256 -0.36996,-0.59147 -0.79345,-0.84369 -1.20068,-0.82077 z m -48.44487,42.66632 c 2.32464,0.0263 4.62829,1.05037 5.96057,2.96895 2.1761,3.13374 1.72702,6.63728 -1.20908,9.41917 l -1.80104,1.70533 0.24467,2.29655 c 1.10593,10.42676 8.9252,16.89688 16.07587,13.30047 1.75591,-0.88314 2.61523,-1.77855 3.57705,-3.7271 l 0.7269,-1.47462 0.91425,2.22004 0.91426,2.21888 -1.7044,1.71225 c -0.9378,0.94159 -2.52744,2.0541 -3.53171,2.4716 -2.50997,1.04345 -4.99664,1.27386 -7.58259,0.70368 -2.98162,-0.6574 -4.56261,-1.55235 -6.87721,-3.89404 -2.99218,-3.0272 -4.98355,-7.67005 -6.02025,-14.04009 -0.20287,-1.24647 -0.4301,-1.50658 -1.59935,-1.82472 -5.36743,-1.46044 -7.17962,-8.62586 -3.10084,-12.26061 1.3843,-1.23357 3.20485,-1.81624 5.0129,-1.79574 z m -0.41654,4.35892 c -0.76831,0.0686 -1.4288,0.48995 -1.93476,1.25087 -0.85767,1.28992 -0.39068,3.15805 0.97157,3.88708 0.58266,0.31183 1.07844,0.57451 1.10044,0.58314 0.0219,0.009 0.59236,-0.17497 1.26755,-0.40691 2.31539,-0.7954 2.37089,-4.12134 0.0847,-5.0545 -0.5287,-0.2158 -1.02857,-0.30083 -1.48954,-0.25968 z"
       id="path3969"
       inkscape:connector-curvature="0" />
    <path
       style="fill:none;stroke:#000000;stroke-width:0.03543307;stroke-miterlimit:4;stroke-dasharray:none;stroke-opacity:1"
       d="m 502.69708,630.15056 c -0.4482,-1.04388 -0.5322,-50.81468 -0.0869,-51.45871 0.25299,-0.36589 7.58753,-0.45789 23.82174,-0.29885 12.90089,0.12639 23.64611,0.24425 23.87828,0.26189 0.23214,0.0177 0.35727,11.7198 0.27807,26.00482 l -0.144,25.97272 -23.71454,0.12957 c -20.59162,0.1125 -23.75643,0.032 -24.0327,-0.61144 z m 50.25131,0.10907 c 4.3e-4,-0.34176 -0.0225,-11.9613 -0.0517,-25.82121 -0.0292,-13.85991 0.0924,-25.41004 0.27003,-25.66696 0.19479,-0.28171 10.09437,-0.4405 24.94034,-0.40008 l 24.6173,0.067 0.14396,26.22126 0.14397,26.22128 -25.03262,0 c -19.65601,0 -25.03234,-0.13346 -25.03131,-0.62136 z m -57.55543,-60.1474 c -0.21126,-3.89589 -0.29984,-8.20191 -0.19686,-9.5689 l 0.18727,-2.48542 27.53047,0 27.53047,0 0.15104,9.56891 0.15107,9.56889 -27.48467,0 -27.48467,0 -0.38412,-7.08348 z m 57.50318,6.46677 c -0.0559,-0.68802 -0.0416,-17.79414 0.0155,-18.40145 0.0195,-0.20761 12.48676,-0.31945 27.705,-0.24855 l 27.66951,0.12891 0,9.44464 0,9.44462 -27.66951,0.12891 c -21.92929,0.10218 -27.68009,-9e-4 -27.72046,-0.49708 z m -28.15955,-21.98834 c -22.72347,-6.75075 -29.05301,-15.36175 -18.13568,-24.6726 5.35086,-4.56347 13.08414,-8.39596 16.94157,-8.39596 9.25324,0 15.69214,6.91082 21.91379,23.51988 2.63195,7.0261 2.24755,6.63244 6.23942,6.38987 1.46882,-0.0893 1.60076,-0.33115 3.32728,-6.09911 3.42368,-11.43787 8.30805,-19.22899 13.89502,-22.16419 2.27809,-1.19682 3.26081,-1.39789 6.83211,-1.39789 3.44671,0 4.72437,0.24274 7.35538,1.39746 3.47014,1.52303 8.44367,5.61424 11.9582,9.83681 6.75528,8.11619 1.09677,15.41696 -17.00294,21.93772 l -5.19767,1.87254 -20.38621,-0.0199 -20.3862,-0.0199 -7.35407,-2.18477 z m 16.01279,-2.53878 c 2.27628,-2.45137 -3.82796,-13.02727 -8.83984,-15.31548 -3.07672,-1.40468 -4.65719,-1.38013 -8.16145,0.12677 -4.61029,1.98253 -6.48885,3.88106 -6.80789,6.88028 -0.2073,1.94877 -0.0207,2.64823 1.02152,3.82839 1.55263,1.75815 8.03515,4.50782 13.46209,5.71018 3.55831,0.78836 4.2631,0.80902 6.33316,0.18553 1.28109,-0.38582 2.62767,-1.02288 2.99241,-1.41567 z m 29.16092,1.35306 c 7.02927,-1.63907 10.84533,-4.09974 10.84533,-6.99329 0,-2.16303 -3.31224,-6.52952 -5.83029,-7.68597 -3.20436,-1.47168 -7.80836,-1.41298 -10.10698,0.12885 -2.65153,1.77856 -6.30957,8.73619 -6.30957,12.00088 0,0.71271 2.99631,2.25838 6.11789,3.15598 1.23411,0.35488 1.08986,0.37143 5.28362,-0.60645 z"
       id="path3850"
       inkscape:connector-curvature="0" />
    <path
       style="fill:none;stroke:#000000;stroke-width:0.03543307;stroke-miterlimit:4;stroke-dasharray:none;stroke-opacity:1"
       d="m 299.82584,655.69472 c -28.15179,0 -27.49662,-0.0498 -29.1899,2.21689 -0.86365,1.15613 -0.8803,1.39929 -0.99544,15.07245 -0.11154,13.24335 -0.0834,13.88722 0.59231,13.64107 0.39,-0.14207 6.54045,-3.23762 13.66757,-6.87772 9.61588,-4.91121 13.07211,-6.5085 13.40235,-6.19315 0.33025,0.31535 0.29775,0.56454 -0.12907,0.96715 -0.31633,0.29841 -6.61524,4.09781 -13.99645,8.442 l -13.42002,7.8987 -0.10963,7.85665 c -0.12588,8.94731 0.20277,10.55031 2.42586,11.84469 1.18536,0.69017 2.33235,0.72157 27.28741,0.72157 25.43467,0 26.08246,-0.0193 27.35814,-0.76194 2.49043,-1.44984 2.44353,-0.92746 2.44353,-27.01976 -7e-4,-26.12516 0.0814,-25.2223 -2.49659,-27.02815 -1.10014,-0.77061 -1.4412,-0.78045 -26.84007,-0.78045 z m -84.1537,19.45745 c -2.79246,-0.0741 -5.66916,0.97423 -7.83101,3.38588 -1.84442,2.05755 -2.34325,3.61235 -2.15888,6.72802 0.11969,2.02251 0.39885,2.93653 1.33671,4.38499 1.31183,2.0261 4.04958,3.87487 6.40412,4.32444 6.42845,1.22744 12.41815,-3.94213 11.82344,-10.20472 -0.49879,-5.25249 -4.92028,-8.49519 -9.57438,-8.61861 z m 46.84283,13.8631 c -1.57241,0.0136 -4.00717,1.20354 -9.33922,4.08559 l -7.49507,4.05194 -16.77592,0.18839 c -16.46447,0.18495 -16.81216,0.20504 -18.74917,1.0563 -2.49691,1.09733 -4.32169,2.76277 -5.65974,5.16375 l -1.05025,1.88385 -0.10964,25.17794 -0.10962,25.17964 2.04748,-0.11438 2.04749,-0.11438 0.73554,-2.07392 c 1.47456,-4.15463 4.22334,-8.95403 6.43242,-11.23242 2.4474,-2.52418 4.54952,-3.5584 8.60013,-4.23192 l 2.65042,-0.44069 -1.39152,-1.55249 c -3.80722,-4.24719 -4.59329,-8.95993 -2.25257,-13.50147 0.73587,-1.42776 2.0399,-3.15511 3.05884,-4.05195 l 1.77696,-1.56427 0,-5.26804 0,-5.26972 10.11189,0 10.11364,0 8.34023,-4.95855 c 10.16651,-6.04447 10.50971,-6.32408 10.50971,-8.52104 0,-1.32618 -0.22801,-1.87207 -1.15281,-2.75514 -0.76281,-0.72836 -1.3958,-1.14508 -2.33922,-1.13702 z m 35.36241,28.08445 c -1.79081,-0.0292 -3.56296,0.20078 -4.52993,0.70139 -3.76768,1.95053 -6.01411,5.29981 -6.02045,8.97686 -0.01,4.88293 2.99108,8.72599 7.80802,10.00121 4.67388,1.23733 9.89654,-1.01882 12.0904,-5.22262 2.53737,-4.86204 0.42023,-10.98043 -4.70673,-13.60575 -1.04161,-0.53338 -2.85052,-0.82188 -4.64131,-0.85109 z m -63.15728,0.32629 c -5.80867,-0.23944 -10.94643,4.19376 -10.94643,10.08699 0,4.48408 2.74093,8.03019 7.45263,9.63791 3.121,1.06495 7.13477,0.25489 9.88732,-1.99486 6.25737,-5.11436 4.01354,-15.14094 -3.87748,-17.33141 -0.84419,-0.23431 -1.68622,-0.3644 -2.51604,-0.39863 z m -6.42358,22.90558 c -4.95748,-0.003 -5.78466,0.15685 -7.33239,0.70979 -4.0657,1.45251 -4.95354,2.52664 -8.97498,10.85398 -2.21373,4.58403 -3.61051,7.94992 -3.61051,8.7044 0,3.17533 2.95556,5.36988 6.11063,4.53805 1.69811,-0.4477 2.39817,-1.41693 4.57943,-6.34791 l 1.74336,-3.94261 0.10609,10.63363 -0.002,0 0.1061,10.63365 13.61099,0 13.61099,0 0.004,-10.64709 0.004,-10.64878 2.28795,3.65836 c 2.60429,4.16402 3.35565,5.046 4.97372,5.84497 1.40424,0.69341 3.91994,0.44898 5.00201,-0.48611 1.21327,-1.04843 1.6849,-3.11864 1.07502,-4.71969 -0.83353,-2.1882 -8.30196,-14.27897 -9.59205,-15.5283 -0.64997,-0.6294 -2.16055,-1.58218 -3.35589,-2.11762 -2.16048,-0.96779 -2.24197,-0.97348 -13.83202,-1.09163 -2.74995,-0.0281 -4.86126,-0.0463 -6.51375,-0.0471 z m 74.93825,0.008 c -1.61845,-6.6e-4 -3.65769,0.017 -6.28743,0.0438 l -11.40084,0.11439 -1.97323,1.00415 c -1.08547,0.55155 -2.54076,1.56839 -3.23388,2.26062 -1.24248,1.24086 -7.69736,13.90013 -8.19877,16.07998 -0.70653,3.07163 3.05845,6.37443 6.03812,5.29664 1.82391,-0.65976 2.62926,-1.72255 4.43091,-5.85003 l 1.75221,-4.01494 0.10433,10.42003 0.10608,10.4217 13.60568,0 13.60393,0 0.10608,-10.64709 0.10432,-10.64878 2.6734,4.2151 c 2.9181,4.60036 4.29756,5.77432 6.7878,5.77432 1.15922,0 1.76952,-0.28331 2.86437,-1.32877 2.28124,-2.17826 1.93079,-3.42057 -3.41955,-12.15083 -4.9827,-8.13031 -5.95479,-9.13862 -9.93861,-10.3006 -1.80753,-0.52719 -2.86954,-0.68767 -7.72492,-0.68961 z m -99.98722,28.2375 0,1.88553 0,1.88385 6.90804,0 6.90805,0 0,-1.88385 0,-1.88553 -6.90805,0 z m 47.76049,0 0,1.88553 0,1.88385 14.99896,0 15.00073,0 0,-1.88385 0,-1.88553 -15.00073,0 z m 64.1421,0.1884 -0.1273,1.2615 c -0.0694,0.69344 -0.0288,1.50361 0.0902,1.79974 0.17817,0.44385 1.41309,0.51895 6.99645,0.43396 l 6.77896,-0.1026 0,-1.69547 0,-1.69713 -6.86915,0 z"
       id="path3820"
       inkscape:connector-curvature="0"
       sodipodi:nodetypes="ssscssscccsssccsssssssssccsscccccccscccsccccccsssssscsssssssssssssssccccccccccsssssssscccssscccccccccscsssccccccccccccccccccccccccccc" />
    <rect
       style="fill:none;stroke:#000000;stroke-width:0.03543307;stroke-miterlimit:4;stroke-dasharray:none;stroke-opacity:1"
       id="rect3805"
       width="796.31219"
       height="827.14288"
       x="1.0398886"
       y="168.07646"
       ry="2.15991e-005"
       rx="2.15991e-005" />
  </g>
</svg>
