<?xml version="1.0" encoding="UTF-8" standalone="no"?>
<!-- Created with Inkscape (http://www.inkscape.org/) -->

<svg
   xmlns:dc="http://purl.org/dc/elements/1.1/"
   xmlns:cc="http://creativecommons.org/ns#"
   xmlns:rdf="http://www.w3.org/1999/02/22-rdf-syntax-ns#"
   xmlns:svg="http://www.w3.org/2000/svg"
   xmlns="http://www.w3.org/2000/svg"
   xmlns:sodipodi="http://sodipodi.sourceforge.net/DTD/sodipodi-0.dtd"
   xmlns:inkscape="http://www.inkscape.org/namespaces/inkscape"
   width="300mm"
   height="400mm"
   viewBox="0 0 1062.9921 1417.3228"
   id="svg2"
   version="1.1"
   inkscape:version="0.91 r13725"
   sodipodi:docname="Strebe_8plus2.svg">
  <defs
     id="defs4" />
  <sodipodi:namedview
     id="base"
     pagecolor="#ffffff"
     bordercolor="#666666"
     borderopacity="1.0"
     inkscape:pageopacity="0.0"
     inkscape:pageshadow="2"
     inkscape:zoom="0.94064537"
     inkscape:cx="308.81595"
     inkscape:cy="947.18568"
     inkscape:document-units="mm"
     inkscape:current-layer="layer1"
     showgrid="false"
     showguides="true"
     inkscape:guide-bbox="true"
     guidetolerance="12"
     gridtolerance="10"
     inkscape:window-width="1920"
     inkscape:window-height="1018"
     inkscape:window-x="-8"
     inkscape:window-y="-8"
     inkscape:window-maximized="1"
     height="400mm">
    <sodipodi:guide
       position="34.345188,786.90888"
       orientation="1,0"
       id="guide3785" />
    <sodipodi:guide
       position="177.78686,17.172594"
       orientation="0,1"
       id="guide3791" />
    <sodipodi:guide
       position="308.09653,688.92399"
       orientation="0,1"
       id="guide4477" />
    <sodipodi:guide
       position="486.78574,61.071432"
       orientation="1,0"
       id="guide4483" />
    <sodipodi:guide
       position="14.883399,642.11236"
       orientation="1,0"
       id="guide4485" />
    <sodipodi:guide
       position="632.50004,127.50001"
       orientation="1,0"
       id="guide4487" />
    <sodipodi:guide
       position="119.06719,730.34959"
       orientation="0,1"
       id="guide4519" />
    <sodipodi:guide
       position="769.28576,995.00006"
       orientation="1,0"
       id="guide4593" />
    <sodipodi:guide
       position="137.50001,113.92858"
       orientation="0,1"
       id="guide4743" />
    <sodipodi:guide
       position="96.428577,545.35717"
       orientation="0,1"
       id="guide4798" />
    <sodipodi:guide
       position="250.51784,1288.9546"
       orientation="1,0"
       id="guide4161" />
    <sodipodi:guide
       position="-6.7655266,1059.9325"
       orientation="0,1"
       id="guide4166" />
  </sodipodi:namedview>
  <metadata
     id="metadata7">
    <rdf:RDF>
      <cc:Work
         rdf:about="">
        <dc:format>image/svg+xml</dc:format>
        <dc:type
           rdf:resource="http://purl.org/dc/dcmitype/StillImage" />
        <dc:title></dc:title>
      </cc:Work>
    </rdf:RDF>
  </metadata>
  <g
     inkscape:label="Ebene 1"
     inkscape:groupmode="layer"
     id="layer1"
     transform="translate(0,364.9606)">
    <path
       style="fill:none;fill-rule:evenodd;stroke:#000000;stroke-width:0.03543307;stroke-linecap:butt;stroke-linejoin:miter;stroke-miterlimit:4;stroke-dasharray:none;stroke-opacity:1"
       d="m 36.989333,-333.74566 0,91.42968 54.982418,0 0,-6.54882 35.001969,0 0,6.54882 71.50976,0 0,-42.14257 10.60547,0 0,42.14257 53.85547,0 0,-6.37304 35.00195,0 0,6.37304 45.99805,0 0,-42.14257 10.10156,0 0,42.14257 50.0625,0 0,-5.79101 35.00391,0 0,5.79101 49.78906,0 0,-42.14257 10.60742,0 0,42.14257 50.06055,0 0,-6.29687 35.00586,0 0,6.29687 49.91211,0 0,-42.14257 10.35742,0 0,42.14257 161.61133,0 0,-91.42968 -769.466807,0 z"
       id="path3816-9"
       inkscape:connector-curvature="0" />
    <path
       style="fill:none;fill-rule:evenodd;stroke:#000000;stroke-width:0.03543307;stroke-linecap:butt;stroke-linejoin:miter;stroke-miterlimit:4;stroke-dasharray:none;stroke-opacity:1"
       d="m 36.573039,-231.83495 0,91.42968 12.591797,0 0,-70.85546 148.570314,0 0,-9.14649 10.71289,0 0,9.14649 42.78396,0 -1.01015,70.85546 12.30627,0 0,-6.37304 35.00196,0 0,6.37304 45.99804,0 0,-42.14257 10.10157,0 0,42.14257 50.0625,0 0,-5.79101 35.0039,0 0,5.79101 49.78906,0 0,-42.14257 10.60743,0 0,42.14257 50.06054,0 0,-6.29687 35.00586,0 0,6.29687 49.91211,0 0,-42.14257 10.35742,0 0,42.14257 161.61133,0 0,-91.42968 z"
       id="path3816-9-8"
       inkscape:connector-curvature="0"
       sodipodi:nodetypes="ccccccccccccccccccccccccccccccccccccc" />
    <path
       inkscape:connector-curvature="0"
       style="fill:none;fill-rule:evenodd;stroke:#000000;stroke-width:0.03543307;stroke-linecap:butt;stroke-linejoin:miter;stroke-miterlimit:4;stroke-dasharray:none;stroke-opacity:1"
       d="m 36.572621,-133.26432 0,91.429692 12.5918,0 0,-70.855472 148.570319,0 0,-9.14649 10.71289,0 0,9.14649 42.27888,0.50508 0.50508,70.855468 11.29613,-0.505076 0,-6.37304 35.00196,0 0,6.37304 45.99804,0 0,-42.14258 10.10157,0 0,42.14258 50.06251,0 0,-5.79101 35.0039,0 0,5.79101 49.78906,0 0,-42.14258 10.60743,0 0,42.14258 50.06055,0 0,-6.29687 35.00586,0 0,6.29687 49.91211,0 0,-42.14258 10.35742,0 0,42.14258 161.61134,0 0,-91.429692 z"
       id="path3816-9-8-3"
       sodipodi:nodetypes="ccccccccccccccccccccccccccccccccccccc" />
    <path
       style="fill:none;fill-rule:evenodd;stroke:#000000;stroke-width:0.03543307;stroke-linecap:butt;stroke-linejoin:miter;stroke-miterlimit:4;stroke-dasharray:none;stroke-opacity:1"
       d="m 36.573039,-33.978638 0,91.42969 54.982422,0 0,-6.54883 17.648639,0 0,-58.1455045 88.86309,0 0.0254,-16.7334055 10.71289,0 0,41.42579 -0.13282,0 0,40.00195 53.85547,0 0,-6.37305 35.00196,0 0,6.37305 45.99804,0 0,-42.14258 10.10157,0 0,42.14258 50.0625,0 0,-5.79102 35.0039,0 0,5.79102 49.78906,0 0,-42.14258 10.60743,0 0,42.14258 50.06054,0 0,-6.29688 35.00586,0 0,6.29688 49.91211,0 0,-42.14258 10.35742,0 0,42.14258 161.61133,0 0,-91.42969 z"
       id="path3816-9-9"
       inkscape:connector-curvature="0"
       sodipodi:nodetypes="ccccccccccccccccccccccccccccccccccccccc" />
    <path
       style="fill:none;fill-rule:evenodd;stroke:#000000;stroke-width:0.03543307;stroke-linecap:butt;stroke-linejoin:miter;stroke-miterlimit:4;stroke-dasharray:none;stroke-opacity:1"
       d="m 36.572266,435.98242 0,91.42969 54.982422,0 35.001952,0 71.50977,0 0.50508,-52.24411 10.60547,0 -0.50508,52.24411 53.85546,0 35.00196,0 45.99804,0 0,-52.74918 10.10157,0 0,52.74918 50.0625,0 35.0039,0 49.78907,0 0,-51.73903 10.60742,0 0,51.73903 50.06054,0 35.00586,0 49.91211,0 0,-52.24411 10.35742,0 0,52.24411 161.61133,0 0,-91.42969 -677.98242,0 0,8.33008 -38.929687,0 0,-8.33008 z"
       transform="translate(0,-364.96066)"
       id="path3816-9-1"
       inkscape:connector-curvature="0"
       sodipodi:nodetypes="ccccccccccccccccccccccccccccccccc" />
    <path
       style="fill:none;fill-rule:evenodd;stroke:#000000;stroke-width:0.03543307;stroke-linecap:butt;stroke-linejoin:miter;stroke-miterlimit:4;stroke-dasharray:none;stroke-opacity:1"
       d="m 35.490234,648.33789 0,91.42969 54.982422,0 0,-6.54883 35.001954,0 0,6.54883 71.50977,0 0,-53.41846 10.60546,0 0,53.41846 53.85547,0 35.00196,0 45.99804,0 -0.86133,-10.75781 10.71485,0.35742 0.24805,10.40039 50.0625,0 35.0039,0 49.78906,0 -0.8164,-10.91016 10.71289,0 0.71094,10.91016 50.06054,0 35.00586,0 49.91211,0 -0.63281,-10.37891 10.20508,0 0.78515,10.37891 161.61133,0 0,-91.42969 -32.76367,0 0,69.03516 -437.24414,0 0,-69.03516 z"
       transform="translate(0,-364.96066)"
       id="path3816-9-1-3-8-2"
       inkscape:connector-curvature="0"
       sodipodi:nodetypes="ccccccccccccccccccccccccccccccccccc" />
    <path
       style="fill:none;fill-rule:evenodd;stroke:#000000;stroke-width:0.03543307;stroke-linecap:butt;stroke-linejoin:miter;stroke-miterlimit:4;stroke-dasharray:none;stroke-opacity:1"
       d="m 36.500209,172.26133 0,91.42969 54.98242,0 35.001961,0 71.50977,0 0.50508,-52.24411 10.60547,0 -0.50508,52.24411 53.85546,0 35.00196,0 45.99804,0 0,-52.74918 10.10157,0 0,52.74918 50.0625,0 35.0039,0 49.78907,0 0,-51.73903 10.60742,0 0,51.73903 50.06054,0 35.00586,0 49.91211,0 0,-52.24411 10.35742,0 0,52.24411 161.61133,0 0,-91.42969 -677.98242,0 0,8.33008 -38.929691,0 0,-8.33008 z"
       id="path3816-9-1-9"
       inkscape:connector-curvature="0"
       sodipodi:nodetypes="ccccccccccccccccccccccccccccccccc" />
    <path
       style="fill:none;fill-rule:evenodd;stroke:#000000;stroke-width:0.03543307;stroke-linecap:butt;stroke-linejoin:miter;stroke-miterlimit:4;stroke-dasharray:none;stroke-opacity:1"
       d="m 908.12036,-332.31633 -91.42968,0 0,54.9824 0,35.0019 0,71.5098 52.24411,0.5051 0,10.6055 -52.24411,-0.5051 0,53.8554 0,35.001998 0,45.99804 52.74918,0 0,10.10157 -52.74918,0 0,50.0625 0,35.0039 0,49.789072 51.73903,0 0,10.60742 -51.73903,0 0,50.06054 0,35.00586 0,49.91211 52.24411,0 0,10.35742 -52.24411,0 0,161.61133 91.42968,0 0,-677.98246 0,-38.9297 z"
       id="path3816-9-1-7"
       inkscape:connector-curvature="0"
       sodipodi:nodetypes="ccccccccccccccccccccccccccccccc" />
    <text
       xml:space="preserve"
       style="font-style:normal;font-weight:normal;font-size:15px;line-height:125%;font-family:sans-serif;letter-spacing:0px;word-spacing:0px;fill:#000000;fill-opacity:1;stroke:none;stroke-width:1px;stroke-linecap:butt;stroke-linejoin:miter;stroke-opacity:1;-inkscape-font-specification:'sans-serif, Normal';font-stretch:normal;font-variant:normal;text-anchor:start;text-align:start;writing-mode:lr;"
       x="756.92719"
       y="-290.33298"
       id="text3802"
       sodipodi:linespacing="125%"><tspan
         sodipodi:role="line"
         id="tspan3804"
         x="756.92719"
         y="-290.33298">1</tspan></text>
    <text
       xml:space="preserve"
       style="font-style:normal;font-weight:normal;font-size:15px;line-height:125%;font-family:sans-serif;letter-spacing:0px;word-spacing:0px;fill:#000000;fill-opacity:1;stroke:none;stroke-width:1px;stroke-linecap:butt;stroke-linejoin:miter;stroke-opacity:1;-inkscape-font-specification:'sans-serif, Normal';font-stretch:normal;font-variant:normal;text-anchor:start;text-align:start;writing-mode:lr;"
       x="756.92712"
       y="12.650506"
       id="text3806"
       sodipodi:linespacing="125%"><tspan
         sodipodi:role="line"
         id="tspan3808"
         x="756.92712"
         y="12.650506">2</tspan></text>
    <text
       xml:space="preserve"
       style="font-style:normal;font-weight:normal;font-size:15px;line-height:125%;font-family:sans-serif;letter-spacing:0px;word-spacing:0px;fill:#000000;fill-opacity:1;stroke:none;stroke-width:1px;stroke-linecap:butt;stroke-linejoin:miter;stroke-opacity:1;-inkscape-font-specification:'sans-serif, Normal';font-stretch:normal;font-variant:normal;text-anchor:start;text-align:start;writing-mode:lr;"
       x="757.99023"
       y="-90.4702"
       id="text3810"
       sodipodi:linespacing="125%"><tspan
         sodipodi:role="line"
         id="tspan3812"
         x="757.99023"
         y="-90.4702">3</tspan></text>
    <text
       xml:space="preserve"
       style="font-style:normal;font-weight:normal;font-size:15px;line-height:125%;font-family:sans-serif;letter-spacing:0px;word-spacing:0px;fill:#000000;fill-opacity:1;stroke:none;stroke-width:1px;stroke-linecap:butt;stroke-linejoin:miter;stroke-opacity:1;-inkscape-font-specification:'sans-serif, Normal';font-stretch:normal;font-variant:normal;text-anchor:start;text-align:start;writing-mode:lr;"
       x="754.8009"
       y="-190.40158"
       id="text3814"
       sodipodi:linespacing="125%"><tspan
         sodipodi:role="line"
         id="tspan3816"
         x="754.8009"
         y="-190.40158">4</tspan></text>
    <text
       xml:space="preserve"
       style="font-style:normal;font-weight:normal;font-size:15px;line-height:125%;font-family:sans-serif;letter-spacing:0px;word-spacing:0px;fill:#000000;fill-opacity:1;stroke:none;stroke-width:1px;stroke-linecap:butt;stroke-linejoin:miter;stroke-opacity:1;-inkscape-font-specification:'sans-serif, Normal';font-stretch:normal;font-variant:normal;text-anchor:start;text-align:start;writing-mode:lr;"
       x="47.8395"
       y="327.32806"
       id="text3822"
       sodipodi:linespacing="125%"><tspan
         sodipodi:role="line"
         id="tspan3824"
         x="47.8395"
         y="327.32806">5</tspan></text>
    <text
       xml:space="preserve"
       style="font-style:normal;font-weight:normal;font-size:15px;line-height:125%;font-family:sans-serif;letter-spacing:0px;word-spacing:0px;fill:#000000;fill-opacity:1;stroke:none;stroke-width:1px;stroke-linecap:butt;stroke-linejoin:miter;stroke-opacity:1;-inkscape-font-specification:'sans-serif, Normal';font-stretch:normal;font-variant:normal;text-anchor:start;text-align:start;writing-mode:lr;"
       x="756.92719"
       y="215.70258"
       id="text3826"
       sodipodi:linespacing="125%"><tspan
         sodipodi:role="line"
         id="tspan3828"
         x="756.92719"
         y="215.70258">6</tspan></text>
    <text
       xml:space="preserve"
       style="font-style:normal;font-weight:normal;font-size:15px;line-height:125%;font-family:sans-serif;letter-spacing:0px;word-spacing:0px;fill:#000000;fill-opacity:1;stroke:none;stroke-width:1px;stroke-linecap:butt;stroke-linejoin:miter;stroke-opacity:1;-inkscape-font-specification:'sans-serif, Normal';font-stretch:normal;font-variant:normal;text-anchor:start;text-align:start;writing-mode:lr;"
       x="757.99023"
       y="118.9605"
       id="text3830"
       sodipodi:linespacing="125%"><tspan
         sodipodi:role="line"
         id="tspan3832"
         x="757.99023"
         y="118.9605">7</tspan></text>
    <text
       xml:space="preserve"
       style="font-style:normal;font-weight:normal;font-size:15px;line-height:125%;font-family:sans-serif;letter-spacing:0px;word-spacing:0px;fill:#000000;fill-opacity:1;stroke:none;stroke-width:1px;stroke-linecap:butt;stroke-linejoin:miter;stroke-opacity:1;-inkscape-font-specification:'sans-serif, Normal';font-stretch:normal;font-variant:normal;text-anchor:start;text-align:start;writing-mode:lr;"
       x="866.42639"
       y="-288.20679"
       id="text3834"
       sodipodi:linespacing="125%"><tspan
         sodipodi:role="line"
         id="tspan3836"
         x="866.42639"
         y="-288.20679">8</tspan></text>
    <flowRoot
       xml:space="preserve"
       id="flowRoot3838"
       style="font-style:normal;font-weight:normal;font-size:40px;line-height:125%;font-family:sans-serif;letter-spacing:0px;word-spacing:0px;fill:#000000;fill-opacity:1;stroke:none;stroke-width:1px;stroke-linecap:butt;stroke-linejoin:miter;stroke-opacity:1"
       transform="translate(-7.4416993,-401.106)"><flowRegion
         id="flowRegion3840"><rect
           id="rect3842"
           width="721.44623"
           height="259.39636"
           x="47.839497"
           y="768.83185" /></flowRegion><flowPara
         id="flowPara3844"><flowSpan
   style="font-size:15px"
   id="flowSpan3846">Anordnung gemäss Nummerierung von oben nach unten und von links nach rechts</flowSpan>.</flowPara></flowRoot>  </g>
</svg>
